<?xml version="1.0" encoding="utf-8"?>
<!-- Generator: Adobe Illustrator 25.0.0, SVG Export Plug-In . SVG Version: 6.00 Build 0)  -->
<svg version="1.1" id="Слой_1" xmlns="http://www.w3.org/2000/svg" xmlns:xlink="http://www.w3.org/1999/xlink" x="0px" y="0px"
	 viewBox="0 0 2000 2000" style="enable-background:new 0 0 2000 2000;" xml:space="preserve">
<style type="text/css">
	.st0{fill:#094456;}
	.st1{fill:#FFFFFF;}
	.st2{fill:#E4A265;}
</style>
<g>
	<g>
		<path class="st2" d="M150.39,942.58c66.25,48.39,133.63,95.15,202.03,140.45c14.38,9.53,29.52,9.38,43.7-0.42
			c29.98-20.72,59.97-41.42,89.94-62.15c13.53-9.35,27.37-18.31,38.67-30.51c19.34-20.89,30.96-45.05,31.26-73.94
			c0.17-16.82,0.03-33.64,0.03-50.47c-0.25,0.03-0.51,0.05-0.76,0.08c-0.56,2.73-1.03,5.48-1.71,8.18
			c-7.3,29.01-24.32,51.41-48.3,68.4c-36.5,25.85-73.44,51.08-110.29,76.43c-13.41,9.23-28.87,8.79-42.81-0.47
			c-66.3-44.05-131.81-89.24-196.11-136.16c-8.74-6.38-17.26-12.68-20.48-23.84c-0.33,1.34-0.32,2.52-0.33,3.7
			c-0.02,16.22,0.35,32.45-0.19,48.65C134.58,924.14,139.47,934.61,150.39,942.58z"/>
		<path class="st2" d="M555.39,995.03c-1.04,4.36-1.87,8.79-3.16,13.07c-7.89,26.09-23.67,46.77-45.57,62.34
			c-37.24,26.49-74.92,52.38-112.73,78.05c-13.28,9.02-27.51,8.35-40.89-0.49c-68.85-45.5-136.65-92.53-203.18-141.36
			c-3.75-2.76-6.93-6.48-9.8-10.19c-2.04-2.64-3.11-6.03-4.83-9.51c0,1.55,0,2.64,0,3.73c-0.04,16.58,0.21,33.17-0.22,49.75
			c-0.33,12.84,4.08,23.13,14.39,30.69c66.68,48.83,134.59,95.91,203.49,141.55c13.73,9.09,29.16,8.94,42.77-0.46
			c32.09-22.16,64.15-44.39,96.28-66.49c12.78-8.79,25.34-17.79,35.62-29.59c17.85-20.47,28.29-43.88,28.43-71.38
			c0.09-16.58,0.02-33.15,0.02-49.73C555.81,995.01,555.6,995.02,555.39,995.03z"/>
		<path class="st2" d="M237.23,853.3c12.72,9.03,25.45,18.03,38.17,27.07c7.43,5.28,7.38,5.24,14.99,0.05
			c12.67-8.62,24.96-17.78,39.35-23.67c44.53-18.25,86.8-14.74,126.85,12.34c4.63,3.13,9.23,6.28,14.08,9.57
			c8.97-9.38,14.99-19.65,12.98-33.1c-1.62-10.85-7.7-19.21-15.84-25.92c-6.93-5.72-14.47-10.74-21.91-15.81
			c-27.38-18.68-57.46-26.55-90.47-21.82c-19.02,2.73-37.14,8.74-53.25,19.13c-22.01,14.19-43.35,29.43-64.96,44.24
			C232.82,848.38,232.84,850.18,237.23,853.3z"/>
	</g>
	<g>
		<g>
			<path class="st0" d="M767.44,799.9c16.5,0,31.55,2.57,45.14,7.7c13.59,5.13,25.31,12.38,35.17,21.74
				c9.86,9.36,17.51,20.48,22.94,33.36c5.43,12.88,8.15,27.17,8.15,42.87c0,15.5-2.72,29.69-8.15,42.57
				c-5.43,12.88-13.18,24.05-23.25,33.51c-10.07,9.46-21.99,16.76-35.78,21.89c-13.79,5.13-29.04,7.7-45.74,7.7h-87.86V799.9H767.44
				z M768.64,972.3c9.06,0,17.31-1.61,24.76-4.83c7.44-3.22,13.94-7.8,19.47-13.74c5.53-5.93,9.81-12.93,12.83-20.98
				c3.02-8.05,4.53-17.01,4.53-26.87c0-9.86-1.61-18.87-4.83-27.02c-3.22-8.15-7.65-15.29-13.28-21.44
				c-5.64-6.14-12.33-10.82-20.08-14.04c-7.75-3.22-16.26-4.83-25.51-4.83h-40.76V972.3H768.64z"/>
			<path class="st0" d="M951,938.18c0,10.47,2.72,18.72,8.15,24.76c5.43,6.04,12.88,9.06,22.34,9.06
				c11.27-0.2,20.08-4.33,26.42-12.38c6.34-8.05,9.51-18.21,9.51-30.49h11.17c0,18.92-2.67,34.57-8,46.95
				c-5.34,12.38-12.88,21.59-22.64,27.62c-9.76,6.04-21.39,9.16-34.87,9.36c-12.08,0-22.45-2.57-31.1-7.7
				c-8.66-5.13-15.4-12.33-20.23-21.59c-4.83-9.26-7.25-20.23-7.25-32.91V849.12H951V938.18z M1017.42,849.12h46.19v162.13h-46.19
				V849.12z"/>
			<path class="st0" d="M1108.59,849.12h46.49v162.13h-46.49V849.12z M1208.83,889.27c-10.87-1.01-20.38,0.3-28.53,3.92
				c-8.15,3.62-14.39,8.86-18.72,15.7c-4.33,6.85-6.49,15-6.49,24.45l-11.77-2.11c0-17.71,2.67-32.8,8-45.29
				c5.33-12.48,12.93-22.04,22.79-28.68c9.86-6.64,21.44-9.96,34.72-9.96V889.27z"/>
			<path class="st0" d="M1291.55,940.9c-8.86,0-15.5,1.51-19.93,4.53c-4.43,3.02-6.64,7.85-6.64,14.49c0,6.44,2.26,11.52,6.79,15.25
				c4.53,3.73,10.72,5.59,18.57,5.59c6.84,0,12.93-1.16,18.27-3.47c5.33-2.31,9.76-5.43,13.28-9.36c3.52-3.92,5.69-8.5,6.49-13.74
				l6.94,25.96c-4.63,10.87-11.88,19.12-21.74,24.76c-9.86,5.64-21.94,8.45-36.23,8.45c-11.47,0-21.39-2.21-29.74-6.64
				c-8.35-4.42-14.79-10.46-19.32-18.12c-4.53-7.65-6.79-16.3-6.79-25.96c0-15.1,5.33-26.97,16-35.63
				c10.67-8.65,25.96-13.08,45.89-13.28h49.51v27.17H1291.55z M1328.08,910.71c0-8.85-2.87-15.8-8.6-20.83
				c-5.74-5.03-14.14-7.55-25.21-7.55c-7.25,0-15,1.26-23.25,3.77c-8.26,2.52-16.61,6.09-25.06,10.72l-14.49-30.19
				c8.05-4.23,15.9-7.75,23.55-10.57c7.65-2.82,15.5-4.98,23.55-6.49c8.05-1.51,16.8-2.26,26.27-2.26c21.94,0,38.84,5.13,50.72,15.4
				c11.87,10.26,17.91,24.45,18.11,42.57l0.3,105.97h-45.59L1328.08,910.71z"/>
			<path class="st0" d="M1415.63,787.22h46.49v224.02h-46.49V787.22z M1513.45,847.61c15.3,0,28.63,3.47,40,10.42
				c11.37,6.94,20.28,16.66,26.72,29.13c6.44,12.48,9.66,27.07,9.66,43.78c0,16.3-3.12,30.6-9.36,42.87
				c-6.24,12.28-15,21.84-26.27,28.68c-11.28,6.85-24.56,10.27-39.85,10.27c-14.09,0-26.17-3.27-36.23-9.81
				c-10.07-6.54-17.81-16-23.25-28.38c-5.43-12.38-8.15-26.92-8.15-43.63c0-17.31,2.66-32.2,8-44.68
				c5.33-12.48,12.98-22.04,22.95-28.68C1487.64,850.93,1499.56,847.61,1513.45,847.61z M1502.58,883.84
				c-7.85,0-14.85,1.96-20.98,5.89c-6.14,3.92-10.92,9.31-14.34,16.15c-3.42,6.84-5.13,14.79-5.13,23.85c0,9.06,1.71,17.06,5.13,24
				c3.42,6.94,8.2,12.33,14.34,16.15c6.14,3.83,13.13,5.74,20.98,5.74c8.05,0,15.09-1.91,21.13-5.74
				c6.04-3.82,10.72-9.21,14.04-16.15c3.32-6.94,4.98-14.95,4.98-24c0-8.85-1.66-16.76-4.98-23.7c-3.32-6.94-8-12.38-14.04-16.3
				C1517.68,885.8,1510.63,883.84,1502.58,883.84z"/>
			<path class="st0" d="M1622.14,787.22h46.49v224.02h-46.49V787.22z"/>
			<path class="st0" d="M1821.1,917.05c-0.2-7.44-1.76-13.84-4.68-19.17c-2.92-5.33-7.09-9.51-12.53-12.53
				c-5.43-3.02-11.67-4.53-18.72-4.53c-7.85,0-14.69,2.01-20.53,6.04c-5.84,4.03-10.37,9.56-13.59,16.61
				c-3.22,7.05-4.83,15.2-4.83,24.45c0,10.47,1.81,19.43,5.43,26.87c3.62,7.45,8.75,13.18,15.4,17.21
				c6.64,4.03,14.29,6.04,22.95,6.04c15.7,0,29.39-5.84,41.06-17.51l24.46,24.15c-8.05,9.06-17.96,16-29.74,20.83
				c-11.77,4.83-25.01,7.25-39.7,7.25c-17.31,0-32.31-3.42-44.98-10.27c-12.68-6.84-22.49-16.45-29.44-28.83
				c-6.94-12.38-10.41-26.72-10.41-43.02c0-16.7,3.52-31.25,10.57-43.63c7.04-12.38,16.85-21.99,29.44-28.83
				c12.58-6.84,27.12-10.36,43.63-10.57c19.12,0,34.77,3.98,46.95,11.93c12.18,7.95,21.03,19.12,26.57,33.51
				c5.53,14.39,7.6,31.45,6.19,51.17h-124.99v-27.17H1821.1z"/>
		</g>
		<g>
			<path class="st0" d="M709.12,1135.05c5.65,0,10.9,0.97,15.74,2.92c4.84,1.95,9.05,4.66,12.61,8.15
				c3.56,3.49,6.35,7.58,8.37,12.27c2.02,4.7,3.03,9.76,3.03,15.19c0,5.5-1.01,10.57-3.03,15.19c-2.02,4.62-4.83,8.7-8.42,12.22
				c-3.6,3.52-7.82,6.26-12.66,8.2c-4.84,1.95-10.09,2.92-15.74,2.92h-30.94v-77.07H709.12z M709.34,1204.52
				c4.33,0,8.33-0.77,12-2.31c3.67-1.54,6.9-3.72,9.69-6.55c2.79-2.83,4.97-6.11,6.55-9.85c1.58-3.74,2.37-7.78,2.37-12.11
				c0-4.4-0.81-8.48-2.42-12.22c-1.61-3.74-3.82-7.03-6.61-9.85c-2.79-2.83-6.06-5.01-9.8-6.55c-3.74-1.54-7.78-2.31-12.11-2.31
				h-22.13v61.76H709.34z"/>
			<path class="st0" d="M800.16,1135.05h52.3v7.71h-43.49v26.42h38.86v7.6h-38.86v27.74h44.92v7.6h-53.73V1135.05z"/>
			<path class="st0" d="M896.06,1135.05h9.47l26.53,67.71l26.64-67.71h9.25l-31.49,77.07h-9.14L896.06,1135.05z"/>
			<path class="st0" d="M1015.51,1135.05h52.3v7.71h-43.49v26.42h38.86v7.6h-38.86v27.74h44.92v7.6h-53.73V1135.05z"/>
			<path class="st0" d="M1122.41,1135.05h8.81v69.47h33.8v7.6h-42.61V1135.05z"/>
			<path class="st0" d="M1247.7,1134.5c5.58,0,10.81,0.99,15.69,2.97c4.88,1.98,9.15,4.77,12.83,8.37c3.67,3.6,6.55,7.74,8.64,12.44
				c2.09,4.7,3.14,9.76,3.14,15.19c0,5.43-1.05,10.53-3.14,15.3c-2.09,4.77-4.97,8.95-8.64,12.55c-3.67,3.6-7.95,6.41-12.83,8.42
				c-4.88,2.02-10.11,3.03-15.69,3.03c-5.65,0-10.92-1.01-15.8-3.03c-4.88-2.02-9.16-4.83-12.83-8.42
				c-3.67-3.6-6.55-7.78-8.64-12.55c-2.09-4.77-3.14-9.87-3.14-15.3c0-5.43,1.05-10.52,3.14-15.25c2.09-4.73,4.97-8.88,8.64-12.44
				c3.67-3.56,7.94-6.33,12.83-8.31C1236.78,1135.49,1242.05,1134.5,1247.7,1134.5z M1247.7,1141.99c-4.33,0-8.39,0.81-12.17,2.42
				c-3.78,1.61-7.12,3.87-10.02,6.77c-2.9,2.9-5.17,6.26-6.83,10.07c-1.65,3.82-2.48,7.89-2.48,12.22c0,4.4,0.83,8.52,2.48,12.33
				c1.65,3.82,3.94,7.19,6.88,10.13c2.94,2.94,6.29,5.21,10.07,6.83c3.78,1.61,7.8,2.42,12.06,2.42c4.33,0,8.38-0.81,12.17-2.42
				c3.78-1.61,7.1-3.89,9.96-6.83c2.86-2.94,5.1-6.31,6.72-10.13c1.61-3.81,2.42-7.93,2.42-12.33c0-4.33-0.81-8.4-2.42-12.22
				c-1.62-3.82-3.85-7.17-6.72-10.07c-2.86-2.9-6.18-5.16-9.96-6.77C1256.08,1142.79,1252.03,1141.99,1247.7,1141.99z"/>
			<path class="st0" d="M1368.25,1135.05c9.54,0,16.94,2.26,22.18,6.77c5.25,4.51,7.87,10.84,7.87,18.99
				c0,8.44-2.62,14.99-7.87,19.65c-5.25,4.66-12.64,6.99-22.18,6.99h-24l3.85-3.85v28.52h-8.81v-77.07H1368.25z M1367.92,1179.86
				c6.97,0,12.37-1.6,16.19-4.79c3.81-3.19,5.72-7.87,5.72-14.04c0-6.02-1.91-10.57-5.72-13.65c-3.82-3.08-9.21-4.62-16.19-4.62
				h-23.67l3.85-3.85v44.81l-3.85-3.85H1367.92z"/>
			<path class="st0" d="M1448.18,1135.05h10.68l29.39,56.81l29.07-56.81h10.79v77.07h-8.26l-0.11-65.07l-29.07,56.81h-5.06
				l-29.28-56.81v65.07h-8.15V1135.05z"/>
			<path class="st0" d="M1586.68,1135.05h52.3v7.71h-43.49v26.42h38.86v7.6h-38.86v27.74h44.92v7.6h-53.73V1135.05z"/>
			<path class="st0" d="M1693.58,1135.05h9.14l48.55,66.72l-2.31,0.77v-67.49h8.7v77.07h-9.03l-48.55-66.61l2.31-0.77v67.38h-8.81
				V1135.05z"/>
			<path class="st0" d="M1805.88,1135.05H1865v7.71h-25.21v69.36h-8.81v-69.36h-25.1V1135.05z"/>
		</g>
	</g>
</g>
</svg>
